<?xml version="1.0" encoding="utf-8"?>
<!-- Generator: Adobe Illustrator 28.1.0, SVG Export Plug-In . SVG Version: 6.00 Build 0)  -->
<svg version="1.1" id="Layer_1" xmlns="http://www.w3.org/2000/svg" xmlns:xlink="http://www.w3.org/1999/xlink" x="0px" y="0px"
	 viewBox="0 0 300.7 46" style="enable-background:new 0 0 300.7 46;" xml:space="preserve">
<style type="text/css">
	.st0{fill:#FFFFFF;}
</style>
<g>
	
		<rect x="113.4" y="-0.2" transform="matrix(0.7071 -0.7071 0.7071 0.7071 27.6524 85.5423)" class="st0" width="7.3" height="19.3"/>
	<polygon class="st0" points="141.4,46 131.1,46 99,13.9 104.1,8.7 	"/>
	<polygon class="st0" points="97.9,30.3 113.7,46 124,46 103.1,25.1 	"/>
</g>
<rect x="154.5" y="29.7" class="st0" width="9" height="3.4"/>
<g>
	<path class="st0" d="M0,14.2h8.8c2.2,0,3.9,0.6,4.9,1.7c0.9,0.9,1.3,1.9,1.3,3.2v0c0,2.1-1.1,3.3-2.5,4.1c2.2,0.8,3.5,2.1,3.5,4.6
		v0c0,3.5-2.8,5.2-7.1,5.2H0V14.2z M7.9,21.9c1.8,0,3-0.6,3-2v0c0-1.2-1-1.9-2.7-1.9H4v4C4,21.9,7.9,21.9,7.9,21.9z M9,29.5
		c1.8,0,2.9-0.6,2.9-2v0c0-1.3-0.9-2-3.1-2H4.1v4.1L9,29.5L9,29.5z"/>
	<path class="st0" d="M18.8,25V14.2h4.1v10.7c0,3.1,1.5,4.7,4.1,4.7s4.1-1.5,4.1-4.5V14.2h4.1v10.6c0,5.7-3.2,8.5-8.3,8.5
		S18.8,30.6,18.8,25L18.8,25z"/>
	<path class="st0" d="M38.7,14.2h8.6c2.4,0,4.3,0.7,5.5,1.9c1,1,1.6,2.5,1.6,4.3v0c0,3-1.7,5-4,5.9l4.6,6.7h-4.9l-4-6h-3.3v6h-4.2
		L38.7,14.2L38.7,14.2z M47.1,23.4c2,0,3.2-1.1,3.2-2.7v0c0-1.8-1.2-2.7-3.3-2.7h-4.1v5.4H47.1z"/>
	<path class="st0" d="M58.2,14.2h3.8l8.8,11.6V14.2H75v18.9h-3.5l-9.1-12v12h-4.1L58.2,14.2L58.2,14.2z"/>
	<path class="st0" d="M78.3,30.4l2.4-2.9c1.7,1.4,3.5,2.3,5.6,2.3c1.7,0,2.7-0.7,2.7-1.8v0c0-1-0.7-1.6-3.8-2.4
		c-3.8-1-6.3-2-6.3-5.8v0c0-3.4,2.8-5.7,6.6-5.7c2.8,0,5.1,0.9,7,2.4l-2.2,3.1c-1.7-1.2-3.3-1.9-4.9-1.9s-2.4,0.7-2.4,1.6v0
		c0,1.2,0.8,1.6,4.1,2.5c3.8,1,6,2.4,6,5.7v0c0,3.8-2.9,5.8-6.9,5.8C83.4,33.4,80.5,32.4,78.3,30.4L78.3,30.4z"/>
</g>
<g>
	<path class="st0" d="M145.6,14.2l-5,8l-5-8h-4.5v14.4l4.1,4.1V20.9l5.3,8h0.1l5.3-8.1v12.3h4.1V14.2H145.6L145.6,14.2z"/>
	<path class="st0" d="M152.9,20.5L152.9,20.5c0-3.7,2.8-6.6,6.6-6.6c2.4,0,3.9,0.8,5.1,2.1l-2.2,2.4c-0.8-0.9-1.6-1.4-2.9-1.4
		c-1.8,0-3.1,1.6-3.1,3.5v0c0,1.9,1.2,3.5,3.2,3.5c1.2,0,2-0.5,2.9-1.4l2.1,2.1c-1.2,1.4-2.6,2.3-5.2,2.3
		C155.7,27.1,152.9,24.1,152.9,20.5L152.9,20.5z"/>
	<path class="st0" d="M168,14.2h7.4c5.9,0,10,4.1,10,9.4v0c0,5.3-4.1,9.4-10,9.4H168V14.2z M175.4,29.4c3.4,0,5.7-2.3,5.7-5.6v0
		c0-3.3-2.3-5.7-5.7-5.7h-3.2v11.4C172.2,29.4,175.4,29.4,175.4,29.4z"/>
	<path class="st0" d="M187.9,23.7L187.9,23.7c0-5.4,4.2-9.8,10.1-9.8s10,4.3,10,9.7v0c0,5.4-4.2,9.8-10.1,9.8S187.9,29.1,187.9,23.7
		z M203.6,23.7L203.6,23.7c0-3.3-2.4-6-5.7-6s-5.7,2.6-5.7,5.9v0c0,3.2,2.4,5.9,5.7,5.9S203.6,27,203.6,23.7z"/>
	<path class="st0" d="M210.9,14.2h3.8l8.9,11.6V14.2h4.1v18.9h-3.5l-9.1-12v12h-4.1L210.9,14.2L210.9,14.2z"/>
	<path class="st0" d="M231.8,14.2h3.8l8.9,11.6V14.2h4.1v18.9h-3.5l-9.1-12v12h-4.1L231.8,14.2L231.8,14.2z"/>
	<path class="st0" d="M252.4,14.2h14.2v3.7h-10.1v3.8h8.9v3.7h-8.9v4h10.2v3.7h-14.4L252.4,14.2L252.4,14.2z"/>
	<path class="st0" d="M270.5,14.2h4.1v15.1h9.4v3.8h-13.6V14.2z"/>
	<path class="st0" d="M287.1,14.2h4.1v15.1h9.4v3.8h-13.6V14.2z"/>
</g>
</svg>
